<?xml version="1.0" standalone="no"?>
<!DOCTYPE svg PUBLIC "-//W3C//DTD SVG 20010904//EN"
 "http://www.w3.org/TR/2001/REC-SVG-20010904/DTD/svg10.dtd">
<svg version="1.0" xmlns="http://www.w3.org/2000/svg"
 width="300.000000pt" height="300.000000pt" viewBox="0 0 300.000000 300.000000"
 preserveAspectRatio="xMidYMid meet">
<metadata>
Created by potrace 1.11, written by Peter Selinger 2001-2013
</metadata>
<g transform="translate(0.000000,300.000000) scale(0.100000,-0.100000)"
fill="#000000" stroke="none">
<path d="M757 2984 c-39 -21 -47 -50 -47 -179 l0 -113 -33 -6 c-66 -12 -174
-73 -232 -131 -58 -58 -119 -166 -131 -232 l-6 -33 -113 0 c-63 0 -125 -4
-139 -10 -34 -13 -59 -61 -47 -93 19 -48 45 -57 173 -57 l118 0 0 -40 0 -40
-123 0 c-115 0 -125 -1 -144 -22 -30 -34 -35 -56 -18 -88 20 -39 61 -50 182
-50 l104 0 -3 -37 -3 -38 -110 -2 c-60 -2 -120 -5 -133 -8 -31 -7 -53 -60 -41
-94 18 -45 36 -50 167 -51 l122 0 0 -40 0 -40 -119 0 c-111 0 -122 -2 -147
-23 -37 -33 -37 -81 0 -114 25 -21 36 -23 147 -23 l119 0 0 -40 0 -40 -122 0
c-131 -1 -149 -6 -167 -51 -12 -34 10 -87 41 -94 13 -3 73 -6 133 -8 l110 -2
3 -37 3 -38 -104 0 c-57 0 -118 -5 -136 -11 -40 -14 -65 -58 -52 -92 19 -48
45 -57 173 -57 l118 0 0 -40 0 -40 -118 0 c-128 0 -154 -9 -173 -57 -12 -32
13 -80 47 -93 14 -6 76 -10 139 -10 l113 0 6 -33 c12 -66 73 -174 131 -232 58
-58 166 -119 232 -131 l33 -6 0 -113 c0 -63 4 -125 10 -139 13 -34 61 -59 93
-47 48 19 57 45 57 173 l0 118 40 0 40 0 0 -118 c0 -128 9 -154 57 -173 34
-13 78 12 92 52 6 18 11 79 11 136 l0 104 38 -3 37 -3 2 -110 c2 -60 5 -120 8
-133 7 -31 60 -53 94 -41 45 18 50 36 51 167 l0 122 39 0 39 0 4 -125 c3 -112
5 -127 25 -146 31 -32 80 -30 110 5 21 25 23 36 23 147 l0 119 40 0 40 0 0
-122 c1 -131 6 -149 51 -167 34 -12 87 10 94 41 3 13 6 73 8 133 l2 110 38 3
37 3 0 -104 c0 -121 11 -162 50 -182 32 -17 54 -12 88 18 21 19 22 29 22 144
l0 123 40 0 40 0 0 -119 c0 -111 2 -122 23 -147 30 -35 79 -37 110 -5 20 19
22 33 25 150 l4 129 32 6 c66 12 173 73 231 131 58 58 119 166 131 232 l6 33
113 0 c63 0 125 4 139 10 34 13 59 61 47 93 -19 48 -45 57 -173 57 l-118 0 0
40 0 40 118 0 c128 0 154 9 173 57 13 34 -12 78 -52 92 -18 6 -79 11 -136 11
l-104 0 3 38 3 37 110 2 c61 2 120 5 133 8 31 7 53 60 41 94 -18 45 -36 50
-166 51 l-123 0 0 39 0 39 125 4 c112 3 127 5 146 25 32 31 30 80 -5 110 -25
21 -36 23 -147 23 l-119 0 0 40 0 40 123 0 c130 1 148 6 166 51 12 34 -10 87
-41 94 -13 3 -72 6 -133 8 l-110 2 -3 38 -3 37 104 0 c121 0 162 11 182 50 17
32 12 54 -18 88 -19 21 -29 22 -144 22 l-123 0 0 40 0 40 118 0 c128 0 154 9
173 57 12 32 -13 80 -47 93 -14 6 -76 10 -139 10 l-113 0 -6 33 c-12 66 -73
174 -131 232 -58 58 -166 119 -232 131 l-33 6 0 113 c0 63 -4 125 -10 139 -13
34 -61 59 -93 47 -48 -19 -57 -45 -57 -173 l0 -118 -40 0 -40 0 0 118 c0 128
-9 154 -57 173 -34 13 -78 -12 -92 -52 -6 -18 -11 -79 -11 -136 l0 -104 -37 3
-38 3 -2 110 c-2 61 -5 120 -8 133 -7 31 -60 53 -94 41 -45 -18 -50 -36 -51
-166 l0 -123 -40 0 -40 0 0 119 c0 111 -2 122 -23 147 -33 37 -81 37 -114 0
-21 -25 -23 -36 -23 -147 l0 -119 -40 0 -40 0 0 123 c-1 130 -6 148 -51 166
-34 12 -87 -10 -94 -41 -3 -13 -6 -72 -8 -133 l-2 -110 -37 -3 -38 -3 0 104
c0 121 -11 162 -50 182 -32 17 -54 12 -87 -18 -22 -19 -23 -29 -23 -144 l0
-123 -40 0 -40 0 0 119 c0 110 -2 122 -22 145 -30 32 -57 38 -91 20z m1448
-621 c65 -22 136 -93 158 -158 15 -43 17 -118 17 -705 0 -747 3 -718 -80 -800
-82 -83 -53 -80 -800 -80 -747 0 -718 -3 -800 80 -83 82 -80 53 -80 800 0 747
-3 718 80 801 81 80 49 77 796 78 592 1 666 -1 709 -16z"/>
<path d="M1313 2228 c-27 -13 -29 -23 -8 -32 11 -4 15 -22 15 -71 0 -49 -4
-67 -15 -71 -28 -11 -15 -24 25 -24 22 0 40 5 40 10 0 6 -4 10 -10 10 -6 0
-10 38 -10 95 0 52 -3 95 -7 94 -5 0 -18 -5 -30 -11z"/>
<path d="M914 2217 c18 -13 18 -15 -2 -86 -12 -40 -29 -79 -39 -87 -16 -12
-14 -13 20 -14 34 0 51 14 27 22 -6 2 -2 27 9 63 l18 60 15 -35 c8 -19 21 -52
28 -73 8 -20 17 -37 22 -37 7 0 48 126 48 149 0 6 9 20 20 31 l20 20 -36 0
c-28 0 -34 -3 -26 -12 7 -9 5 -30 -7 -67 l-16 -55 -26 65 c-23 60 -27 64 -59
67 -32 3 -33 2 -16 -11z"/>
<path d="M1110 2110 c0 -6 33 -10 80 -10 47 0 80 4 80 10 0 6 -33 10 -80 10
-47 0 -80 -4 -80 -10z"/>
<path d="M2091 2041 c-10 -7 -10 -10 -1 -13 9 -3 6 -26 -14 -90 -30 -100 -30
-98 -12 -98 8 0 20 15 26 33 l13 32 10 -32 c10 -34 33 -43 55 -21 17 17 15 29
-5 26 -13 -2 -19 5 -21 27 -3 26 2 33 30 47 l33 17 -38 0 c-21 1 -36 -3 -33
-8 3 -5 -1 -14 -9 -21 -19 -16 -19 -6 0 56 8 27 15 50 15 52 0 6 -36 1 -49 -7z"/>
<path d="M2020 2015 c0 -8 7 -15 15 -15 8 0 15 7 15 15 0 8 -7 15 -15 15 -8 0
-15 -7 -15 -15z"/>
<path d="M915 1981 c-3 -6 37 -63 90 -127 85 -103 94 -118 82 -133 -49 -58
-177 -221 -177 -225 0 -3 87 -6 194 -6 l194 0 7 56 c6 52 -2 86 -13 55 -2 -7
-13 -22 -23 -32 -17 -17 -35 -19 -150 -19 l-131 0 87 105 87 106 -75 92 -75
92 111 3 c104 3 113 1 130 -19 9 -12 17 -27 17 -35 0 -8 5 -14 11 -14 6 0 9
21 7 53 l-3 52 -182 3 c-112 1 -184 -1 -188 -7z"/>
<path d="M1830 1945 c-23 -24 -16 -37 8 -13 25 25 20 -1 -8 -46 -35 -54 -35
-56 -15 -56 8 0 27 25 42 55 27 54 52 76 38 33 -4 -13 -9 -38 -12 -55 -4 -28
-2 -33 14 -33 22 0 43 18 43 38 0 12 -3 12 -15 2 -18 -15 -19 -4 -4 39 7 19
18 31 29 31 10 0 20 7 24 15 4 12 -6 15 -58 15 -54 0 -66 -3 -86 -25z"/>
<path d="M1999 1968 c-1 -6 -10 -84 -12 -107 -3 -30 13 -36 38 -16 16 12 17
16 6 24 -11 7 -11 15 -2 41 16 47 14 60 -9 60 -11 0 -20 -1 -21 -2z"/>
<path d="M1620 1910 c0 -6 33 -10 80 -10 47 0 80 4 80 10 0 6 -33 10 -80 10
-47 0 -80 -4 -80 -10z"/>
<path d="M1475 1826 c-58 -26 -105 -94 -105 -152 0 -34 42 -74 78 -74 27 0
112 47 112 62 0 12 -14 9 -36 -7 -28 -21 -81 -19 -94 4 -16 32 -12 39 28 46
51 8 100 39 114 71 11 23 10 29 -11 45 -27 22 -45 23 -86 5z m55 -34 c0 -23
-25 -47 -64 -62 -37 -14 -41 -9 -22 29 25 48 86 71 86 33z"/>
<path d="M1265 1430 c-23 -25 -31 -101 -15 -140 37 -89 120 -45 120 63 0 79
-62 125 -105 77z m59 -16 c13 -34 6 -131 -10 -145 -23 -19 -34 4 -34 73 0 64
7 88 25 88 7 0 16 -7 19 -16z"/>
<path d="M910 1370 c0 -5 4 -10 9 -10 6 0 3 -23 -5 -51 -22 -74 -4 -84 32 -18
39 71 54 74 40 10 -5 -28 -7 -53 -4 -57 10 -9 48 15 48 32 0 8 -4 13 -9 9 -6
-3 -6 7 0 27 19 67 0 89 -44 51 -19 -17 -20 -17 -14 0 5 14 1 17 -23 17 -17 0
-30 -4 -30 -10z"/>
<path d="M1060 1350 c0 -6 33 -10 80 -10 47 0 80 4 80 10 0 6 -33 10 -80 10
-47 0 -80 -4 -80 -10z"/>
<path d="M1060 1300 c0 -6 33 -10 80 -10 47 0 80 4 80 10 0 6 -33 10 -80 10
-47 0 -80 -4 -80 -10z"/>
<path d="M1897 1104 c-4 -4 -7 -92 -7 -195 0 -178 1 -188 20 -194 10 -3 28 -1
40 5 18 10 20 20 20 100 0 78 2 91 19 100 29 15 58 12 65 -6 3 -9 6 -55 6
-104 0 -79 2 -89 20 -95 10 -3 29 -1 41 5 20 11 21 17 17 114 -5 116 -17 142
-69 157 -29 9 -42 8 -67 -5 l-31 -16 -3 67 c-3 68 -3 68 -33 71 -17 2 -34 0
-38 -4z"/>
<path d="M1707 1053 c-4 -3 -7 -19 -7 -34 0 -18 -6 -28 -20 -32 -26 -7 -27
-47 -1 -54 17 -4 20 -16 23 -95 3 -80 6 -92 27 -109 44 -36 111 -23 111 21 0
25 -4 29 -27 27 -22 -2 -28 3 -35 31 -5 19 -8 53 -6 75 3 38 6 42 33 47 23 4
31 11 33 32 3 24 -1 27 -30 30 -29 3 -33 7 -36 36 -3 28 -7 32 -31 32 -15 0
-31 -3 -34 -7z"/>
<path d="M1038 982 c-31 -16 -38 -17 -42 -5 -4 9 -16 13 -33 11 l-28 -3 -3
-131 c-2 -128 -2 -132 19 -137 47 -13 59 7 59 97 0 68 3 86 18 99 10 10 25 17
33 17 31 0 39 -23 39 -116 0 -82 2 -93 19 -99 43 -13 51 2 51 95 0 94 13 120
59 120 30 0 41 -35 41 -130 0 -68 3 -79 19 -85 10 -3 26 -3 35 1 24 9 23 185
-2 234 -27 55 -83 62 -144 18 -14 -10 -20 -9 -35 4 -30 27 -65 30 -105 10z"/>
<path d="M1464 991 c-45 -11 -54 -19 -54 -48 0 -23 3 -24 28 -17 15 4 45 8 67
8 36 1 40 -1 43 -26 3 -26 1 -28 -35 -28 -84 0 -139 -58 -113 -119 19 -47 94
-67 136 -37 17 13 21 12 37 -2 14 -12 22 -14 35 -5 14 9 17 27 16 114 0 121
-9 144 -62 159 -41 11 -53 11 -98 1z m84 -188 c-4 -38 -53 -57 -74 -29 -21 29
-1 56 42 56 33 0 35 -2 32 -27z"/>
</g>
</svg>
